HIERARCHY
ROOT joint_Root
{
	OFFSET 0.0 0.0 0.0
	CHANNELS 6 Xposition Yposition Zposition Zrotation Xrotation Yrotation 
	JOINT Hips
	{
		OFFSET 4.5925 91.4895 -427.239
		CHANNELS 6 Xposition Yposition Zposition Zrotation Xrotation Yrotation 
		JOINT Spine
		{
			OFFSET 15.7357 0.0 0.0
			CHANNELS 6 Xposition Yposition Zposition Zrotation Xrotation Yrotation 
			JOINT Chest
			{
				OFFSET 8.98455 -0.406207 0.0
				CHANNELS 6 Xposition Yposition Zposition Zrotation Xrotation Yrotation 
				JOINT Neck
				{
					OFFSET 16.3773 0.0 0.0
					CHANNELS 6 Xposition Yposition Zposition Zrotation Xrotation Yrotation 
					JOINT Head
					{
						OFFSET 6.45672 0.0 0.0
						CHANNELS 6 Xposition Yposition Zposition Zrotation Xrotation Yrotation 
						End Site
						{
							OFFSET 0.0 0.0 0.0
						}
					}
				}
				JOINT Shoulder_L
				{
					OFFSET 12.9942 -0.242716 4.98039
					CHANNELS 6 Xposition Yposition Zposition Zrotation Xrotation Yrotation 
					JOINT UpperArm_L
					{
						OFFSET 5.34809 0.0 0.0
						CHANNELS 6 Xposition Yposition Zposition Zrotation Xrotation Yrotation 
						JOINT LowerArm_L
						{
							OFFSET 24.3286 1.87007e-05 0.0
							CHANNELS 6 Xposition Yposition Zposition Zrotation Xrotation Yrotation 
							JOINT Hand_L
							{
								OFFSET 22.2916 0.0 0.0
								CHANNELS 6 Xposition Yposition Zposition Zrotation Xrotation Yrotation 
								End Site
								{
									OFFSET 0.0 0.0 0.0
								}
							}
						}
					}
				}
				JOINT Shoulder_R
				{
					OFFSET 12.9945 -0.242716 -4.98039
					CHANNELS 6 Xposition Yposition Zposition Zrotation Xrotation Yrotation 
					JOINT UpperArm_R
					{
						OFFSET -5.34813 0.0 0.0
						CHANNELS 6 Xposition Yposition Zposition Zrotation Xrotation Yrotation 
						JOINT LowerArm_R
						{
							OFFSET -24.3289 0.000322201 0.0
							CHANNELS 6 Xposition Yposition Zposition Zrotation Xrotation Yrotation 
							JOINT Hand_R
							{
								OFFSET -22.2915 -0.000108084 0.0
								CHANNELS 6 Xposition Yposition Zposition Zrotation Xrotation Yrotation 
								End Site
								{
									OFFSET 0.0 0.0 0.0
								}
							}
						}
					}
				}
			}
		}
		JOINT UpperLeg_L
		{
			OFFSET -2.19248 -6.46944 0.0
			CHANNELS 6 Xposition Yposition Zposition Zrotation Xrotation Yrotation 
			JOINT LowerLeg_L
			{
				OFFSET 39.0811 0.0 -1.23785e-05
				CHANNELS 6 Xposition Yposition Zposition Zrotation Xrotation Yrotation 
				JOINT Foot_L
				{
					OFFSET 40.9854 0.0 -1.26872e-05
					CHANNELS 6 Xposition Yposition Zposition Zrotation Xrotation Yrotation 
					JOINT Toes_L
					{
						OFFSET 11.7543 0.0 0.0
						CHANNELS 6 Xposition Yposition Zposition Zrotation Xrotation Yrotation 
						End Site
						{
							OFFSET 0.0 0.0 0.0
						}
					}
				}
			}
		}
		JOINT UpperLeg_R
		{
			OFFSET -2.19251 6.46944 0.0
			CHANNELS 6 Xposition Yposition Zposition Zrotation Xrotation Yrotation 
			JOINT LowerLeg_R
			{
				OFFSET -39.0811 -0.00228153 -0.0401928
				CHANNELS 6 Xposition Yposition Zposition Zrotation Xrotation Yrotation 
				JOINT Foot_R
				{
					OFFSET -40.9854 0.0 0.0
					CHANNELS 6 Xposition Yposition Zposition Zrotation Xrotation Yrotation 
					JOINT Toes_R
					{
						OFFSET -11.7543 0.0 0.0
						CHANNELS 6 Xposition Yposition Zposition Zrotation Xrotation Yrotation 
						End Site
						{
							OFFSET 0.0 0.0 0.0
						}
					}
				}
			}
		}
	}
}
MOTION
Frames:	6
Frame Time:	0.0333333
0.000000 0.000000 0.000000 0.000000 0.000000 -0.000000 -0.509496 90.381500 -3.327690 88.253000 -3.006130 16.206100 15.735700 0.000005 -0.000001 89.537700 76.427800 -89.627700 8.984550 -0.406207 -0.000000 19.377400 -0.223474 -0.142430 16.377300 -0.000001 -0.000001 8.033370 -4.023030 0.939027 6.456720 -0.000001 -0.000000 -11.556000 -3.596640 0.783709 12.994200 -0.242716 4.980390 -91.540300 7.971980 -79.027400 5.348090 -0.000007 -0.000001 -62.616800 28.171300 -22.305800 24.328600 0.000019 0.000005 13.342400 24.894000 -29.398300 22.291600 -0.000001 0.000005 12.934500 5.214480 2.353600 12.994500 -0.242716 -4.980390 88.946200 11.421600 -84.693000 -5.348130 -0.000001 -0.000004 -58.797000 34.076100 -20.880600 -24.328900 0.000322 -0.000009 4.066630 8.823440 -24.873300 -22.291500 -0.000108 -0.000004 18.582600 5.389900 -2.612000 -2.192480 -6.469440 -0.000000 -172.556000 -12.496100 1.711670 39.081100 -0.000007 -0.000012 -0.145964 0.211421 34.621300 40.985400 -0.000006 -0.000013 1.149080 5.895860 -69.817100 11.754300 -0.000000 0.000003 -0.000212 -0.001945 -16.650800 -2.192510 6.469440 -0.000001 173.273000 19.998500 -175.887000 -39.081100 -0.002282 -0.040193 -0.221181 0.352810 32.467100 -40.985400 0.000008 0.000006 4.437250 16.596400 -69.866400 -11.754300 -0.000006 -0.000006 -0.002664 -0.036738 -18.067100
0.000000 0.000000 0.000000 0.000000 0.000000 -0.000000 -0.503426 90.375900 -3.298690 88.268800 -2.991580 16.207100 15.735700 0.000005 -0.000001 89.485100 76.434600 -89.588100 8.984550 -0.406207 -0.000000 19.363500 -0.249023 -0.163880 16.377300 -0.000001 -0.000001 7.973620 -3.999850 0.895170 6.456720 -0.000001 -0.000000 -11.586100 -3.572850 0.807397 12.994200 -0.242716 4.980390 -91.547700 7.991450 -79.001600 5.348090 -0.000007 -0.000001 -63.054400 27.074100 -21.865800 24.328600 0.000019 0.000005 13.761600 24.332800 -30.727200 22.291600 -0.000001 0.000005 13.077800 5.218800 2.243620 12.994500 -0.242716 -4.980390 88.922500 11.449400 -84.587600 -5.348130 -0.000001 -0.000004 -59.288300 32.886100 -20.301200 -24.328900 0.000322 -0.000009 4.188560 8.569930 -26.178000 -22.291500 -0.000108 -0.000004 18.701800 5.391810 -2.673310 -2.192480 -6.469440 -0.000000 -172.567000 -12.504000 1.723940 39.081100 -0.000007 -0.000012 -0.147622 0.213715 34.634800 40.985400 -0.000006 -0.000013 1.158600 5.920290 -69.843000 11.754300 -0.000000 0.000003 -0.000204 -0.001884 -16.648600 -2.192510 6.469440 -0.000001 173.238000 20.028200 -175.877000 -39.081100 -0.002282 -0.040193 -0.220928 0.351995 32.497900 -40.985400 0.000008 0.000006 4.434340 16.581200 -69.899200 -11.754300 -0.000006 -0.000006 -0.002682 -0.036952 -18.075800
0.000000 0.000000 0.000000 0.000000 0.000000 -0.000000 -0.494145 90.375900 -3.256790 88.293900 -2.976950 16.265400 15.735700 0.000005 -0.000001 89.429300 76.427300 -89.549800 8.984550 -0.406207 -0.000000 19.378000 -0.276804 -0.194299 16.377300 -0.000001 -0.000001 7.971500 -3.975020 0.879376 6.456720 -0.000001 -0.000000 -11.649200 -3.489070 0.799258 12.994200 -0.242716 4.980390 -91.562700 8.007240 -78.919500 5.348090 -0.000007 -0.000001 -63.383900 25.929900 -21.431000 24.328600 0.000019 0.000005 14.321100 23.683600 -32.437800 22.291600 -0.000001 0.000005 13.389600 5.220600 2.197500 12.994500 -0.242716 -4.980390 88.899000 11.484000 -84.486600 -5.348130 -0.000001 -0.000004 -59.791400 31.454000 -19.688000 -24.328900 0.000322 -0.000009 4.313490 8.223930 -27.809000 -22.291500 -0.000108 -0.000004 19.025300 5.396300 -2.817640 -2.192480 -6.469440 -0.000000 -172.580000 -12.500700 1.824460 39.081100 -0.000007 -0.000012 -0.146897 0.212859 34.610500 40.985400 -0.000006 -0.000013 1.162820 5.925680 -69.861700 11.754300 -0.000000 0.000003 -0.000198 -0.001833 -16.646700 -2.192510 6.469440 -0.000001 173.177000 19.973200 -175.780000 -39.081100 -0.002282 -0.040193 -0.224407 0.357529 32.492600 -40.985400 0.000008 0.000006 4.413950 16.572200 -69.928500 -11.754300 -0.000006 -0.000006 -0.002692 -0.037067 -18.080500
0.000000 0.000000 0.000000 0.000000 0.000000 -0.000000 -0.494742 90.365700 -3.234710 88.291100 -2.977820 16.244700 15.735700 0.000005 -0.000001 89.450600 76.446100 -89.565700 8.984550 -0.406207 -0.000000 19.340500 -0.266025 -0.185424 16.377300 -0.000001 -0.000001 7.936910 -3.938250 0.833781 6.456720 -0.000001 -0.000000 -11.631800 -3.467120 0.767284 12.994200 -0.242716 4.980390 -91.572400 8.013110 -78.860000 5.348090 -0.000007 -0.000001 -63.586200 24.756500 -21.182500 24.328600 0.000019 0.000005 14.920400 23.123500 -34.157400 22.291600 -0.000001 0.000005 13.713200 5.220940 2.188750 12.994500 -0.242716 -4.980390 88.867000 11.457000 -84.313900 -5.348130 -0.000001 -0.000004 -60.280100 29.820000 -19.101800 -24.328900 0.000322 -0.000009 4.577760 8.034450 -29.813200 -22.291500 -0.000108 -0.000004 19.471200 5.399780 -2.929750 -2.192480 -6.469440 -0.000000 -172.578000 -12.514500 1.795060 39.081100 -0.000007 -0.000012 -0.148229 0.214406 34.658300 40.985400 -0.000006 -0.000013 1.166950 5.923280 -69.899900 11.754300 -0.000000 0.000003 -0.000197 -0.001831 -16.646700 -2.192510 6.469440 -0.000001 173.184000 19.954400 -175.806000 -39.081100 -0.002282 -0.040193 -0.225715 0.358976 32.536400 -40.985400 0.000008 0.000006 4.406310 16.542000 -69.965800 -11.754300 -0.000006 -0.000006 -0.002633 -0.036380 -18.052500
0.000000 0.000000 0.000000 0.000000 0.000000 -0.000000 -0.502326 90.369500 -3.217510 88.292900 -2.964240 16.268700 15.735700 0.000005 -0.000001 89.446400 76.457500 -89.560600 8.984550 -0.406207 -0.000000 19.317600 -0.267687 -0.183540 16.377300 -0.000001 -0.000001 8.007960 -3.877900 0.838045 6.456720 -0.000001 -0.000000 -11.748900 -3.375730 0.733870 12.994200 -0.242716 4.980390 -91.598100 8.016800 -78.687700 5.348090 -0.000007 -0.000001 -63.608700 23.609500 -21.142200 24.328600 0.000019 0.000005 15.740300 22.792600 -36.037100 22.291600 -0.000001 0.000005 14.139800 5.219970 2.213310 12.994500 -0.242716 -4.980390 88.839500 11.441500 -84.169400 -5.348130 -0.000001 -0.000004 -60.601000 28.132800 -18.583600 -24.328900 0.000322 -0.000009 4.882820 7.817620 -32.136800 -22.291500 -0.000108 -0.000004 20.108900 5.402660 -3.023690 -2.192480 -6.469440 -0.000000 -172.571000 -12.467200 1.847080 39.081100 -0.000007 -0.000012 -0.149708 0.216770 34.630400 40.985400 -0.000006 -0.000013 1.152890 5.928950 -69.901000 11.754300 -0.000000 0.000003 -0.000192 -0.001790 -16.645200 -2.192510 6.469440 -0.000001 173.181000 19.958500 -175.756000 -39.081100 -0.002282 -0.040193 -0.222552 0.354326 32.513900 -40.985400 0.000008 0.000006 4.405020 16.515200 -69.967100 -11.754300 -0.000006 -0.000006 -0.002655 -0.036632 -18.062800
0.000000 0.000000 0.000000 0.000000 0.000000 -0.000000 -0.512870 90.359200 -3.210180 88.288000 -2.971970 16.222300 15.735700 0.000005 -0.000001 89.477300 76.493800 -89.588700 8.984550 -0.406207 -0.000000 19.245200 -0.252397 -0.180623 16.377300 -0.000001 -0.000001 8.051050 -3.813930 0.795875 6.456720 -0.000001 -0.000000 -11.767000 -3.349100 0.766108 12.994200 -0.242716 4.980390 -91.601500 7.982310 -78.616600 5.348090 -0.000007 -0.000001 -63.603400 22.259100 -21.126100 24.328600 0.000019 0.000005 16.894400 22.723500 -38.176000 22.291600 -0.000001 0.000005 14.486100 5.214520 2.352490 12.994500 -0.242716 -4.980390 88.822600 11.391100 -84.059300 -5.348130 -0.000001 -0.000004 -60.771100 26.467600 -18.198700 -24.328900 0.000322 -0.000009 5.343190 7.770070 -34.679400 -22.291500 -0.000108 -0.000004 20.854700 5.407570 -3.184690 -2.192480 -6.469440 -0.000000 -172.562000 -12.511400 1.772820 39.081100 -0.000007 -0.000012 -0.149287 0.215715 34.685700 40.985400 -0.000006 -0.000013 1.150510 5.923430 -69.924100 11.754300 -0.000000 0.000003 -0.000184 -0.001723 -16.642700 -2.192510 6.469440 -0.000001 173.222000 19.934800 -175.833000 -39.081100 -0.002282 -0.040193 -0.222581 0.353655 32.566400 -40.985400 0.000008 0.000006 4.409370 16.475900 -69.996600 -11.754300 -0.000006 -0.000006 -0.002473 -0.034487 -17.975500
